<svg width="257" height="150" viewBox="0 0 257 150" fill="none" xmlns="http://www.w3.org/2000/svg">
<path d="M244.602 1.94124C251.171 1.94124 256.496 7.26603 256.496 13.8345V138.106C256.496 144.675 251.171 150 244.602 150C238.034 150 232.709 144.675 232.709 138.106V13.8345C232.709 7.26605 238.034 1.94124 244.602 1.94124Z" fill="#335CFF"/>
<path d="M147.634 30.9466C137.865 11.7112 126.639 0 103.459 0C80.5221 0 69.0537 11.7112 59.527 30.9466L0 150H25.5463L45.6919 109.769H45.8133L74.6362 52.4878L82.8887 35.983C87.4397 26.8811 93.0828 21.2379 103.459 21.2379C114.078 21.2379 119.721 26.8811 124.212 35.983L132.403 52.4878L161.287 109.769H161.408L181.554 150H207.1L147.634 30.9466Z" fill="#335CFF"/>
<path d="M103.586 115.776C116.522 115.776 127.008 105.29 127.008 92.354C127.008 79.4182 116.522 68.9316 103.586 68.9316C90.65 68.9316 80.1635 79.4182 80.1635 92.354C80.1635 105.29 90.65 115.776 103.586 115.776Z" fill="#335CFF"/>
</svg>
